<?xml version="1.0" standalone="no"?>
<!DOCTYPE svg PUBLIC "-//W3C//DTD SVG 20010904//EN"
 "http://www.w3.org/TR/2001/REC-SVG-20010904/DTD/svg10.dtd">
<svg version="1.0" xmlns="http://www.w3.org/2000/svg"
 width="225.000000pt" height="225.000000pt" viewBox="0 0 225.000000 225.000000"
 preserveAspectRatio="xMidYMid meet">

<g transform="translate(0.000000,225.000000) scale(0.100000,-0.100000)"
fill="#000000" stroke="none">
<path d="M25 2225 l-25 -24 0 -291 0 -291 25 -24 c31 -32 66 -32 102 -1 l28
24 3 179 3 180 258 -259 c243 -243 260 -258 295 -258 47 0 76 28 76 76 0 34
-16 52 -256 293 l-255 256 176 5 177 5 24 28 c31 36 31 71 -1 102 l-24 25
-291 0 -291 0 -24 -25z"/>
<path d="M1595 2225 c-32 -31 -32 -66 -1 -102 l24 -28 177 -5 176 -5 -255
-257 c-239 -240 -256 -259 -256 -292 0 -47 29 -76 76 -76 34 0 52 16 295 258
l259 259 0 -174 0 -175 29 -29 c36 -36 73 -37 106 -4 l25 24 0 291 0 291 -25
24 -24 25 -291 0 -291 0 -24 -25z"/>
<path d="M429 541 l-268 -268 -3 179 -3 180 -28 24 c-36 31 -71 31 -102 -1
l-25 -24 0 -291 0 -291 25 -24 24 -25 291 0 291 0 24 25 c33 33 32 70 -4 106
l-29 29 -174 0 -174 0 268 270 c234 235 268 273 268 300 0 42 -39 80 -81 80
-28 0 -61 -30 -300 -269z"/>
<path d="M1465 785 c-16 -15 -25 -35 -25 -56 0 -28 30 -62 268 -300 l269 -268
-179 -3 -180 -3 -24 -28 c-31 -36 -31 -71 1 -103 l25 -25 296 3 296 3 19 24
c18 22 19 43 19 313 l0 289 -25 24 c-32 33 -74 33 -106 -1 -23 -25 -24 -31
-27 -203 l-3 -178 -252 254 c-139 140 -264 261 -279 269 -39 20 -65 17 -93
-11z"/>
</g>
</svg>
